<?xml version="1.0" encoding="UTF-8" standalone="no"?>
<!-- Created with Inkscape (http://www.inkscape.org/) -->

<svg
   xmlns:dc="http://purl.org/dc/elements/1.1/"
   xmlns:cc="http://creativecommons.org/ns#"
   xmlns:rdf="http://www.w3.org/1999/02/22-rdf-syntax-ns#"
   xmlns:svg="http://www.w3.org/2000/svg"
   xmlns="http://www.w3.org/2000/svg"
   xmlns:sodipodi="http://sodipodi.sourceforge.net/DTD/sodipodi-0.dtd"
   xmlns:inkscape="http://www.inkscape.org/namespaces/inkscape"
   width="416.68094mm"
   height="394.90955mm"
   viewBox="0 0 1476.4285 1399.2858"
   id="svg3411"
   version="1.1"
   inkscape:version="0.91 r13725"
   sodipodi:docname="logo_vector.svg">
  <defs
     id="defs3413" />
  <sodipodi:namedview
     id="base"
     pagecolor="#ffffff"
     bordercolor="#666666"
     borderopacity="1.0"
     inkscape:pageopacity="0.0"
     inkscape:pageshadow="2"
     inkscape:zoom="0.35"
     inkscape:cx="802.6685"
     inkscape:cy="583.8107"
     inkscape:document-units="px"
     inkscape:current-layer="layer1"
     showgrid="false"
     inkscape:window-width="1920"
     inkscape:window-height="1056"
     inkscape:window-x="0"
     inkscape:window-y="24"
     inkscape:window-maximized="1"
     fit-margin-top="0"
     fit-margin-left="0"
     fit-margin-right="0"
     fit-margin-bottom="0" />
  <metadata
     id="metadata3416">
    <rdf:RDF>
      <cc:Work
         rdf:about="">
        <dc:format>image/svg+xml</dc:format>
        <dc:type
           rdf:resource="http://purl.org/dc/dcmitype/StillImage" />
        <dc:title></dc:title>
      </cc:Work>
    </rdf:RDF>
  </metadata>
  <g
     inkscape:label="Layer 1"
     inkscape:groupmode="layer"
     id="layer1"
     transform="translate(318.21426,167.28069)">
    <path
       style="fill:#7cb342;fill-opacity:1;stroke:#ffffff;stroke-width:0.9867233"
       d="m -317.7209,532.36219 0,-699.14952 737.72089,0 737.72091,0 0,696.84968 0,696.84975 -105.5621,-0.264 -105.56198,-0.264 -71.58805,-78.9747 -71.58806,-78.9748 0,-603.812 0,-603.81192 -431.955,0 -431.954975,0 0,259.88123 0,259.88124 64.3078592,-0.0538 64.3079268,-0.0538 48.532909,-72.39082 c 57.63523,-85.96784 74.52438,-104.80058 106.77676,-119.06461 23.85978,-10.55233 26.93045,-10.73323 182.93043,-10.77739 87.26485,-0.023 159.62926,-1.59733 160.80996,-3.49469 1.1807,-1.89736 -5.22431,-34.49751 -14.23326,-72.44478 -18.56535,-78.200101 -19.45951,-89.214367 -8.94702,-110.2094653 8.98782,-17.9501997 24.60059,-25.5321517 52.16875,-25.3344597 38.74096,0.277822 46.68905,13.448137 71.11693,117.844408 35.63504,152.291327 36.31822,167.609047 8.35896,187.419137 -12.28496,8.70436 -21.34668,9.81352 -90.96171,11.13385 -49.86868,0.94583 -77.31757,3.18403 -77.31757,6.30454 0,2.66091 31.86374,135.5064 70.80828,295.21212 38.94455,159.70578 76.05344,312.10758 82.46431,338.67063 18.57255,76.95498 14.73525,107.64868 -16.83788,134.68168 -19.60985,16.7901 -72.37162,38.5204 -78.3276,32.2598 -4.12316,-4.334 -43.41451,-138.98571 -96.30022,-330.02148 -20.9787,-75.77992 -40.0778,-138.30578 -42.44249,-138.94633 -7.70836,-2.08802 -82.99035,99.81566 -101.34732,137.18632 -15.65745,31.875 -15.26146,45.70443 2.97311,103.83503 23.83882,75.99682 16.88847,96.61542 -41.85436,124.16238 -19.81416,9.29169 -36.83202,15.95868 -37.81747,14.81558 -2.55241,-2.96087 -44.33654,-145.06311 -58.91167,-200.35079 -11.12177,-42.1879 -11.67696,-48.59206 -6.00805,-69.30356 3.43534,-12.55112 16.84765,-39.24017 29.80513,-59.30906 12.95748,-20.06886 34.12945,-52.86058 47.04884,-72.87042 12.91933,-20.00989 23.48461,-41.74333 23.4783,-48.29652 -0.01,-12.03365 -46.7485,-202.65281 -50.57698,-206.28112 -1.13633,-1.07692 -26.07708,32.08484 -55.42381,73.6928 -62.34814,88.39756 -48.31601,81.44608 -164.566356,81.52556 l -74.014689,0.0506 0,283.45436 0,283.45445 73.045165,82.2192 73.045194,82.2192 -201.661014,0 -201.66098,0 0,-699.14953 z M 684.51173,1227.0238 c -14.06054,-5.6562 -92.35962,-82.0021 -88.17114,-85.9717 1.94333,-1.8416 30.22087,-3.4274 62.83917,-3.5239 67.89797,-0.201 93.54684,6.0795 130.90186,32.0524 21.44822,14.9128 52.16651,49.079 52.16651,58.0216 0,5.0744 -145.00592,4.5427 -157.7364,-0.5784 z M 250.81821,136.06019 C 212.85426,118.25105 187.85498,72.766081 193.72462,32.181186 c 8.09324,-55.959191 50.40037,-90.710091 110.17105,-90.493999 25.93628,0.0938 36.19948,2.489293 54.70973,12.769871 34.10852,18.94383 48.75369,42.9618174 50.91361,83.498233 1.92831,36.190043 -4.24956,53.462307 -27.68715,77.408269 -31.035,31.70818 -88.26704,40.74929 -131.01365,20.69663 z"
       id="path3509"
       inkscape:connector-curvature="0" />
  </g>
</svg>
